<svg width="23" height="24" viewBox="0 0 23 24" fill="none" xmlns="http://www.w3.org/2000/svg">
<path d="M3.625 18.75H8.395C8.54306 18.7508 8.68983 18.7225 8.82689 18.6665C8.96396 18.6105 9.08863 18.528 9.19375 18.4237L16.9788 10.6275L20.1737 7.49999C20.2792 7.39541 20.3629 7.27098 20.42 7.13389C20.4771 6.9968 20.5065 6.84976 20.5065 6.70124C20.5065 6.55273 20.4771 6.40568 20.42 6.26859C20.3629 6.1315 20.2792 6.00708 20.1737 5.90249L15.4038 1.07624C15.2992 0.970798 15.1747 0.887104 15.0376 0.82999C14.9006 0.772875 14.7535 0.743469 14.605 0.743469C14.4565 0.743469 14.3094 0.772875 14.1724 0.82999C14.0353 0.887104 13.9108 0.970798 13.8063 1.07624L10.6337 4.25999L2.82625 12.0562C2.72198 12.1614 2.63949 12.286 2.58351 12.4231C2.52752 12.5602 2.49914 12.7069 2.5 12.855V17.625C2.5 17.9234 2.61853 18.2095 2.8295 18.4205C3.04048 18.6315 3.32663 18.75 3.625 18.75ZM14.605 3.46124L17.7887 6.64499L16.1912 8.24249L13.0075 5.05874L14.605 3.46124ZM4.75 13.3162L11.4213 6.64499L14.605 9.82874L7.93375 16.5H4.75V13.3162ZM21.625 21H1.375C1.07663 21 0.790483 21.1185 0.579505 21.3295C0.368526 21.5405 0.25 21.8266 0.25 22.125C0.25 22.4234 0.368526 22.7095 0.579505 22.9205C0.790483 23.1315 1.07663 23.25 1.375 23.25H21.625C21.9234 23.25 22.2095 23.1315 22.4205 22.9205C22.6315 22.7095 22.75 22.4234 22.75 22.125C22.75 21.8266 22.6315 21.5405 22.4205 21.3295C22.2095 21.1185 21.9234 21 21.625 21Z" fill="#304FFF"/>
</svg>
